<svg xmlns="http://www.w3.org/2000/svg" viewBox="0 0 135.54 155.18"><defs><style>.cls-1{fill:#3646e5;}.cls-2{fill:#fff;stroke:#fff;stroke-miterlimit:10;}</style></defs><g id="Livello_2" data-name="Livello 2"><g id="Livello_1-2" data-name="Livello 1"><polygon class="cls-1" points="2.18 105.2 2.18 39.79 65.41 2.05 130.53 38.4 130.53 105.2 87.73 129.9 66.36 142.24 2.18 105.2"/><path class="cls-1" d="M65.42,2.63l10,5.56L130,38.69v66.22l-25.93,15-16.62,9.59L66.36,141.66,46,129.89,28.79,120,2.68,104.91V40.07L57.55,7.32l7.87-4.69m0-1.16L57,6.47,1.68,39.5v66l.05,0,26.56,15.33,17.17,9.91,20.9,12.06L88,130.33l16.62-9.58L131,105.49V38.1L75.87,7.31,65.4,1.47Z"/><path class="cls-2" d="M90.45,133.69c-.22-.43-.46-.84-.69-1.24a21.31,21.31,0,0,0-5.14-5.77l-16,9.55-18-10a26.73,26.73,0,0,0-4.43,6.68c-.12.26-.23.53-.35.81a26.79,26.79,0,0,0-1.91,7l24.91,13.9,23.69-14.15A21.07,21.07,0,0,0,90.45,133.69ZM133.94,40.1l0-2-.08,0L77.36,6.55,66.65.58,58.09,5.69,1.44,39.5l-.94.55L.69,52.44l.75,51.61.05,3,.14,10L26.57,131a21.09,21.09,0,0,1,1.81-7.63c.09-.21.18-.42.29-.62a21.28,21.28,0,0,1,4.56-6.24q-7.89-4.42-15.82-8.84L16.55,49,66.91,19l51.21,28.58.86,58.64-17.27,10.31a25.18,25.18,0,0,1,5.05,6.16c.14.23.27.47.4.71a25.29,25.29,0,0,1,2.51,6.91L135,115.13Z"/></g></g></svg>