<svg xmlns="http://www.w3.org/2000/svg" viewBox="0 0 188.84 217.62"><defs><style>.cls-1{fill:#3646e5;}.cls-2{fill:#fff;}</style></defs><g id="Livello_2" data-name="Livello 2"><g id="Livello_1-2" data-name="Livello 1"><polygon class="cls-1" points="175.03 153.74 96.05 200.97 15.65 156.18 14.25 64.16 93.24 16.93 173.63 61.72 175.03 153.74"/><path class="cls-2" d="M188.47,54.09,94.05,0,0,54.73.37,163.54l25.38,14.54a49.74,49.74,0,0,1,17.61-28l-10-5.76-.24-70.7L94.18,38.11l61.35,35.14.25,70.71-8.87,5.16a36.86,36.86,0,0,1,17.61,27.93l24.32-14.15ZM119.14,165.28,94.66,179.52,71.23,166.1A32,32,0,0,0,53.62,194l41.17,23.58,42-24.41a33.71,33.71,0,0,0-17.61-27.93Z"/></g></g></svg>